<?xml version="1.0" encoding="UTF-8"?>
<svg width="16px" height="21px" viewBox="0 0 16 21" version="1.1" xmlns="http://www.w3.org/2000/svg" xmlns:xlink="http://www.w3.org/1999/xlink">
    <!-- Generator: Sketch 55.2 (78181) - https://sketchapp.com -->
    <title>Icon</title>
    <desc>Created with Sketch.</desc>
    <g id="Login" stroke="none" stroke-width="1" fill="none" fill-rule="evenodd">
        <g id="Extra-large:-Desktops---12-col" transform="translate(-1040.000000, -520.000000)" fill="#8086A3">
            <g id="Password" transform="translate(720.000000, 509.000000)">
                <g id="ic_lock" transform="translate(316.000000, 10.000000)">
                    <path d="M18,8 L17,8 L17,6 C17,3.24 14.76,1 12,1 C9.24,1 7,3.24 7,6 L7,8 L6,8 C4.9,8 4,8.9 4,10 L4,20 C4,21.1 4.9,22 6,22 L18,22 C19.1,22 20,21.1 20,20 L20,10 C20,8.9 19.1,8 18,8 L18,8 Z M12,17 C10.9,17 10,16.1 10,15 C10,13.9 10.9,13 12,13 C13.1,13 14,13.9 14,15 C14,16.1 13.1,17 12,17 L12,17 Z M15.1,8 L8.9,8 L8.9,6 C8.9,4.29 10.29,2.9 12,2.9 C13.71,2.9 15.1,4.29 15.1,6 L15.1,8 L15.1,8 Z" id="Icon"></path>
                </g>
            </g>
        </g>
    </g>
</svg>